{
    "asset" : {
        "generator" : "Khronos glTF Blender I/O v1.8.19",
        "version" : "2.0"
    },
    "scene" : 0,
    "scenes" : [
        {
            "name" : "Scene",
            "nodes" : [
                0
            ]
        }
    ],
    "nodes" : [
        {
            "mesh" : 0,
            "name" : "mauer part 3"
        }
    ],
    "materials" : [
        {
            "doubleSided" : true,
            "name" : "RuinStone",
            "pbrMetallicRoughness" : {
                "baseColorFactor" : [
                    0.0236504003405571,
                    0.0236504003405571,
                    0.0236504003405571,
                    1
                ],
                "metallicFactor" : 0,
                "roughnessFactor" : 0.9173228740692139
            }
        }
    ],
    "meshes" : [
        {
            "name" : "Cube.004",
            "primitives" : [
                {
                    "attributes" : {
                        "POSITION" : 0,
                        "NORMAL" : 1,
                        "TEXCOORD_0" : 2
                    },
                    "indices" : 3,
                    "material" : 0
                }
            ]
        }
    ],
    "accessors" : [
        {
            "bufferView" : 0,
            "componentType" : 5126,
            "count" : 392,
            "max" : [
                1.7271571159362793,
                0.7448877692222595,
                0.16967830061912537
            ],
            "min" : [
                -0.014705872163176537,
                0,
                -0.1554727554321289
            ],
            "type" : "VEC3"
        },
        {
            "bufferView" : 1,
            "componentType" : 5126,
            "count" : 392,
            "type" : "VEC3"
        },
        {
            "bufferView" : 2,
            "componentType" : 5126,
            "count" : 392,
            "type" : "VEC2"
        },
        {
            "bufferView" : 3,
            "componentType" : 5123,
            "count" : 555,
            "type" : "SCALAR"
        }
    ],
    "bufferViews" : [
        {
            "buffer" : 0,
            "byteLength" : 4704,
            "byteOffset" : 0
        },
        {
            "buffer" : 0,
            "byteLength" : 4704,
            "byteOffset" : 4704
        },
        {
            "buffer" : 0,
            "byteLength" : 3136,
            "byteOffset" : 9408
        },
        {
            "buffer" : 0,
            "byteLength" : 1110,
            "byteOffset" : 12544
        }
    ],
    "buffers" : [
        {
            "byteLength" : 13656,
            "uri" : "Bricks3.bin"
        }
    ]
}
