{
    "asset" : {
        "generator" : "Khronos glTF Blender I/O v1.8.19",
        "version" : "2.0"
    },
    "scene" : 0,
    "scenes" : [
        {
            "name" : "Scene",
            "nodes" : [
                0
            ]
        }
    ],
    "nodes" : [
        {
            "mesh" : 0,
            "name" : "mauer part 2"
        }
    ],
    "materials" : [
        {
            "doubleSided" : true,
            "name" : "RuinStone",
            "pbrMetallicRoughness" : {
                "baseColorFactor" : [
                    0.0236504003405571,
                    0.0236504003405571,
                    0.0236504003405571,
                    1
                ],
                "metallicFactor" : 0,
                "roughnessFactor" : 0.9173228740692139
            }
        }
    ],
    "meshes" : [
        {
            "name" : "Cube.003",
            "primitives" : [
                {
                    "attributes" : {
                        "POSITION" : 0,
                        "NORMAL" : 1,
                        "TEXCOORD_0" : 2
                    },
                    "indices" : 3,
                    "material" : 0
                }
            ]
        }
    ],
    "accessors" : [
        {
            "bufferView" : 0,
            "componentType" : 5126,
            "count" : 319,
            "max" : [
                0.9761030077934265,
                0.5552467107772827,
                0.15804143249988556
            ],
            "min" : [
                -1,
                0,
                -0.16148018836975098
            ],
            "type" : "VEC3"
        },
        {
            "bufferView" : 1,
            "componentType" : 5126,
            "count" : 319,
            "type" : "VEC3"
        },
        {
            "bufferView" : 2,
            "componentType" : 5126,
            "count" : 319,
            "type" : "VEC2"
        },
        {
            "bufferView" : 3,
            "componentType" : 5123,
            "count" : 450,
            "type" : "SCALAR"
        }
    ],
    "bufferViews" : [
        {
            "buffer" : 0,
            "byteLength" : 3828,
            "byteOffset" : 0
        },
        {
            "buffer" : 0,
            "byteLength" : 3828,
            "byteOffset" : 3828
        },
        {
            "buffer" : 0,
            "byteLength" : 2552,
            "byteOffset" : 7656
        },
        {
            "buffer" : 0,
            "byteLength" : 900,
            "byteOffset" : 10208
        }
    ],
    "buffers" : [
        {
            "byteLength" : 11108,
            "uri" : "Bricks2.bin"
        }
    ]
}
