{
    "asset" : {
        "generator" : "Khronos glTF Blender I/O v1.8.19",
        "version" : "2.0"
    },
    "scene" : 0,
    "scenes" : [
        {
            "name" : "Scene",
            "nodes" : [
                0
            ]
        }
    ],
    "nodes" : [
        {
            "mesh" : 0,
            "name" : "mauer part 1"
        }
    ],
    "materials" : [
        {
            "doubleSided" : true,
            "name" : "RuinStone",
            "pbrMetallicRoughness" : {
                "baseColorFactor" : [
                    0.0236504003405571,
                    0.0236504003405571,
                    0.0236504003405571,
                    1
                ],
                "metallicFactor" : 0,
                "roughnessFactor" : 0.9173228740692139
            }
        }
    ],
    "meshes" : [
        {
            "name" : "Cube.002",
            "primitives" : [
                {
                    "attributes" : {
                        "POSITION" : 0,
                        "NORMAL" : 1,
                        "TEXCOORD_0" : 2
                    },
                    "indices" : 3,
                    "material" : 0
                }
            ]
        }
    ],
    "accessors" : [
        {
            "bufferView" : 0,
            "componentType" : 5126,
            "count" : 746,
            "max" : [
                2.225368022918701,
                0.7448877692222595,
                0.15079163014888763
            ],
            "min" : [
                -0.5,
                0,
                -0.14574211835861206
            ],
            "type" : "VEC3"
        },
        {
            "bufferView" : 1,
            "componentType" : 5126,
            "count" : 746,
            "type" : "VEC3"
        },
        {
            "bufferView" : 2,
            "componentType" : 5126,
            "count" : 746,
            "type" : "VEC2"
        },
        {
            "bufferView" : 3,
            "componentType" : 5123,
            "count" : 1026,
            "type" : "SCALAR"
        }
    ],
    "bufferViews" : [
        {
            "buffer" : 0,
            "byteLength" : 8952,
            "byteOffset" : 0
        },
        {
            "buffer" : 0,
            "byteLength" : 8952,
            "byteOffset" : 8952
        },
        {
            "buffer" : 0,
            "byteLength" : 5968,
            "byteOffset" : 17904
        },
        {
            "buffer" : 0,
            "byteLength" : 2052,
            "byteOffset" : 23872
        }
    ],
    "buffers" : [
        {
            "byteLength" : 25924,
            "uri" : "Bricks1.bin"
        }
    ]
}
