{
    "asset" : {
        "generator" : "Khronos glTF Blender I/O v1.7.33",
        "version" : "2.0"
    },
    "scene" : 0,
    "scenes" : [
        {
            "name" : "Scene",
            "nodes" : [
                0,
                1,
                2,
                3
            ]
        }
    ],
    "nodes" : [
        {
            "mesh" : 0,
            "name" : "Bush.001",
            "rotation" : [
                0.0013362935278564692,
                -0.31273582577705383,
                -0.003317053196951747,
                0.9498333930969238
            ],
            "scale" : [
                0.9131664633750916,
                0.9131665229797363,
                0.9131664633750916
            ],
            "translation" : [
                0.46263426542282104,
                1.2628581523895264,
                0.09383949637413025
            ]
        },
        {
            "mesh" : 1,
            "name" : "Stick.001",
            "translation" : [
                0,
                0.407177209854126,
                0
            ]
        },
        {
            "mesh" : 2,
            "name" : "Stick.002",
            "translation" : [
                0,
                0.407177209854126,
                0
            ]
        },
        {
            "mesh" : 3,
            "name" : "Bush.002",
            "rotation" : [
                0,
                -0.8436426520347595,
                0,
                0.5369051098823547
            ],
            "scale" : [
                0.7639766931533813,
                0.7639766335487366,
                0.7639766931533813
            ],
            "translation" : [
                -0.3597869873046875,
                1.1260319948196411,
                -0.45033693313598633
            ]
        }
    ],
    "materials" : [
        {
            "doubleSided" : true,
            "name" : "Leafs",
            "pbrMetallicRoughness" : {
                "baseColorFactor" : [
                    0.03616681694984436,
                    0.18446610867977142,
                    0,
                    1
                ],
                "metallicFactor" : 0,
                "roughnessFactor" : 0.7283464670181274
            }
        },
        {
            "doubleSided" : true,
            "name" : "Wood",
            "pbrMetallicRoughness" : {
                "baseColorFactor" : [
                    0.11927301436662674,
                    0.07637768983840942,
                    0.020433684810996056,
                    1
                ],
                "metallicFactor" : 0
            }
        }
    ],
    "meshes" : [
        {
            "name" : "Cube.002",
            "primitives" : [
                {
                    "attributes" : {
                        "POSITION" : 0,
                        "NORMAL" : 1,
                        "TEXCOORD_0" : 2
                    },
                    "indices" : 3,
                    "material" : 0
                }
            ]
        },
        {
            "name" : "Cylinder.001",
            "primitives" : [
                {
                    "attributes" : {
                        "POSITION" : 4,
                        "NORMAL" : 5,
                        "TEXCOORD_0" : 6
                    },
                    "indices" : 7,
                    "material" : 1
                }
            ]
        },
        {
            "name" : "Cylinder.002",
            "primitives" : [
                {
                    "attributes" : {
                        "POSITION" : 8,
                        "NORMAL" : 9,
                        "TEXCOORD_0" : 10
                    },
                    "indices" : 11,
                    "material" : 1
                }
            ]
        },
        {
            "name" : "Cube.003",
            "primitives" : [
                {
                    "attributes" : {
                        "POSITION" : 12,
                        "NORMAL" : 13,
                        "TEXCOORD_0" : 14
                    },
                    "indices" : 3,
                    "material" : 0
                }
            ]
        }
    ],
    "accessors" : [
        {
            "bufferView" : 0,
            "componentType" : 5126,
            "count" : 456,
            "max" : [
                0.7399089932441711,
                0.6007420420646667,
                0.6810524463653564
            ],
            "min" : [
                -0.6274872422218323,
                -0.7382563948631287,
                -0.7053200006484985
            ],
            "type" : "VEC3"
        },
        {
            "bufferView" : 1,
            "componentType" : 5126,
            "count" : 456,
            "type" : "VEC3"
        },
        {
            "bufferView" : 2,
            "componentType" : 5126,
            "count" : 456,
            "type" : "VEC2"
        },
        {
            "bufferView" : 3,
            "componentType" : 5123,
            "count" : 462,
            "type" : "SCALAR"
        },
        {
            "bufferView" : 4,
            "componentType" : 5126,
            "count" : 144,
            "max" : [
                0.4148029386997223,
                0.4324278235435486,
                0.2579672336578369
            ],
            "min" : [
                -0.1119631975889206,
                -0.42184212803840637,
                -0.1119631975889206
            ],
            "type" : "VEC3"
        },
        {
            "bufferView" : 5,
            "componentType" : 5126,
            "count" : 144,
            "type" : "VEC3"
        },
        {
            "bufferView" : 6,
            "componentType" : 5126,
            "count" : 144,
            "type" : "VEC2"
        },
        {
            "bufferView" : 7,
            "componentType" : 5123,
            "count" : 228,
            "type" : "SCALAR"
        },
        {
            "bufferView" : 8,
            "componentType" : 5126,
            "count" : 168,
            "max" : [
                0.16345728933811188,
                0.35200321674346924,
                0.1472529023885727
            ],
            "min" : [
                -0.622812032699585,
                -0.42184212803840637,
                -0.3769848942756653
            ],
            "type" : "VEC3"
        },
        {
            "bufferView" : 9,
            "componentType" : 5126,
            "count" : 168,
            "type" : "VEC3"
        },
        {
            "bufferView" : 10,
            "componentType" : 5126,
            "count" : 168,
            "type" : "VEC2"
        },
        {
            "bufferView" : 11,
            "componentType" : 5123,
            "count" : 258,
            "type" : "SCALAR"
        },
        {
            "bufferView" : 12,
            "componentType" : 5126,
            "count" : 456,
            "max" : [
                0.7399089932441711,
                0.6007420420646667,
                0.6810524463653564
            ],
            "min" : [
                -0.6274872422218323,
                -0.7382563948631287,
                -0.7053200006484985
            ],
            "type" : "VEC3"
        },
        {
            "bufferView" : 13,
            "componentType" : 5126,
            "count" : 456,
            "type" : "VEC3"
        },
        {
            "bufferView" : 14,
            "componentType" : 5126,
            "count" : 456,
            "type" : "VEC2"
        }
    ],
    "bufferViews" : [
        {
            "buffer" : 0,
            "byteLength" : 5472,
            "byteOffset" : 0
        },
        {
            "buffer" : 0,
            "byteLength" : 5472,
            "byteOffset" : 5472
        },
        {
            "buffer" : 0,
            "byteLength" : 3648,
            "byteOffset" : 10944
        },
        {
            "buffer" : 0,
            "byteLength" : 924,
            "byteOffset" : 14592
        },
        {
            "buffer" : 0,
            "byteLength" : 1728,
            "byteOffset" : 15516
        },
        {
            "buffer" : 0,
            "byteLength" : 1728,
            "byteOffset" : 17244
        },
        {
            "buffer" : 0,
            "byteLength" : 1152,
            "byteOffset" : 18972
        },
        {
            "buffer" : 0,
            "byteLength" : 456,
            "byteOffset" : 20124
        },
        {
            "buffer" : 0,
            "byteLength" : 2016,
            "byteOffset" : 20580
        },
        {
            "buffer" : 0,
            "byteLength" : 2016,
            "byteOffset" : 22596
        },
        {
            "buffer" : 0,
            "byteLength" : 1344,
            "byteOffset" : 24612
        },
        {
            "buffer" : 0,
            "byteLength" : 516,
            "byteOffset" : 25956
        },
        {
            "buffer" : 0,
            "byteLength" : 5472,
            "byteOffset" : 26472
        },
        {
            "buffer" : 0,
            "byteLength" : 5472,
            "byteOffset" : 31944
        },
        {
            "buffer" : 0,
            "byteLength" : 3648,
            "byteOffset" : 37416
        }
    ],
    "buffers" : [
        {
            "byteLength" : 41064,
            "uri" : "Bush2.bin"
        }
    ]
}
