{
    "asset" : {
        "generator" : "Khronos glTF Blender I/O v1.7.33",
        "version" : "2.0"
    },
    "scene" : 0,
    "scenes" : [
        {
            "name" : "Scene",
            "nodes" : [
                0,
                1
            ]
        }
    ],
    "nodes" : [
        {
            "mesh" : 0,
            "name" : "Bush",
            "translation" : [
                0,
                1.2269054651260376,
                0
            ]
        },
        {
            "mesh" : 1,
            "name" : "Stick",
            "translation" : [
                0,
                0.407177209854126,
                0
            ]
        }
    ],
    "materials" : [
        {
            "doubleSided" : true,
            "name" : "Leafs",
            "pbrMetallicRoughness" : {
                "baseColorFactor" : [
                    0.03616681694984436,
                    0.18446610867977142,
                    0,
                    1
                ],
                "metallicFactor" : 0,
                "roughnessFactor" : 0.7283464670181274
            }
        },
        {
            "doubleSided" : true,
            "name" : "Wood",
            "pbrMetallicRoughness" : {
                "baseColorFactor" : [
                    0.11927301436662674,
                    0.07637768983840942,
                    0.020433684810996056,
                    1
                ],
                "metallicFactor" : 0
            }
        }
    ],
    "meshes" : [
        {
            "name" : "Cube",
            "primitives" : [
                {
                    "attributes" : {
                        "POSITION" : 0,
                        "NORMAL" : 1,
                        "TEXCOORD_0" : 2
                    },
                    "indices" : 3,
                    "material" : 0
                }
            ]
        },
        {
            "name" : "Cylinder",
            "primitives" : [
                {
                    "attributes" : {
                        "POSITION" : 4,
                        "NORMAL" : 5,
                        "TEXCOORD_0" : 6
                    },
                    "indices" : 7,
                    "material" : 1
                }
            ]
        }
    ],
    "accessors" : [
        {
            "bufferView" : 0,
            "componentType" : 5126,
            "count" : 456,
            "max" : [
                0.7399089932441711,
                0.6007420420646667,
                0.6810524463653564
            ],
            "min" : [
                -0.6274872422218323,
                -0.7382563948631287,
                -0.7053200006484985
            ],
            "type" : "VEC3"
        },
        {
            "bufferView" : 1,
            "componentType" : 5126,
            "count" : 456,
            "type" : "VEC3"
        },
        {
            "bufferView" : 2,
            "componentType" : 5126,
            "count" : 456,
            "type" : "VEC2"
        },
        {
            "bufferView" : 3,
            "componentType" : 5123,
            "count" : 462,
            "type" : "SCALAR"
        },
        {
            "bufferView" : 4,
            "componentType" : 5126,
            "count" : 144,
            "max" : [
                0.16714605689048767,
                0.42184212803840637,
                0.13192878663539886
            ],
            "min" : [
                -0.1119631975889206,
                -0.42184212803840637,
                -0.1119631975889206
            ],
            "type" : "VEC3"
        },
        {
            "bufferView" : 5,
            "componentType" : 5126,
            "count" : 144,
            "type" : "VEC3"
        },
        {
            "bufferView" : 6,
            "componentType" : 5126,
            "count" : 144,
            "type" : "VEC2"
        },
        {
            "bufferView" : 7,
            "componentType" : 5123,
            "count" : 228,
            "type" : "SCALAR"
        }
    ],
    "bufferViews" : [
        {
            "buffer" : 0,
            "byteLength" : 5472,
            "byteOffset" : 0
        },
        {
            "buffer" : 0,
            "byteLength" : 5472,
            "byteOffset" : 5472
        },
        {
            "buffer" : 0,
            "byteLength" : 3648,
            "byteOffset" : 10944
        },
        {
            "buffer" : 0,
            "byteLength" : 924,
            "byteOffset" : 14592
        },
        {
            "buffer" : 0,
            "byteLength" : 1728,
            "byteOffset" : 15516
        },
        {
            "buffer" : 0,
            "byteLength" : 1728,
            "byteOffset" : 17244
        },
        {
            "buffer" : 0,
            "byteLength" : 1152,
            "byteOffset" : 18972
        },
        {
            "buffer" : 0,
            "byteLength" : 456,
            "byteOffset" : 20124
        }
    ],
    "buffers" : [
        {
            "byteLength" : 20580,
            "uri" : "Bush1.bin"
        }
    ]
}
