# Blender v3.0.0 OBJ File: 'cape_test.blend'
# www.blender.org
mtllib cape_test.mtl
o Plane
v -1.062729 -0.447069 -0.451134
v 1.080690 -0.216094 0.489436
v -1.059746 -0.410799 0.461419
v -1.116536 -0.174817 0.018276
v 1.080690 0.000000 0.000000
v 1.080690 0.000000 -0.300363
v -1.101714 -0.272498 -0.299571
v -1.104271 -0.255646 0.291542
v 1.080690 0.000000 0.287734
v 0.840537 -0.237819 -0.424637
v -0.360230 -0.237819 -0.424637
v -0.833666 -0.288234 -0.433043
v -0.832859 -0.266876 0.480368
v -0.600384 -0.216094 0.489436
v -0.360230 -0.216094 0.489436
v -0.120077 -0.216094 0.489436
v 0.120077 -0.216094 0.489436
v 0.360230 -0.216094 0.489436
v 0.600384 -0.216094 0.489436
v 0.840537 -0.216094 0.489436
v -0.851985 -0.055831 0.005837
v -0.600384 0.000000 0.000000
v -0.360230 0.000000 0.000000
v 0.120077 0.000000 0.000000
v 0.360230 0.000000 0.000000
v 0.600384 0.000000 0.000000
v -0.120077 0.000000 0.000000
v 0.840537 0.000000 0.000000
v -0.851269 -0.060551 -0.295371
v -0.600384 0.000000 -0.300363
v -0.360230 0.000000 -0.300363
v -0.120077 0.000000 -0.300363
v 0.120077 0.000000 -0.300363
v 0.360230 0.000000 -0.300363
v 0.600384 0.000000 -0.300363
v 0.840537 0.000000 -0.300363
v -0.851599 -0.058375 0.293116
v -0.600384 0.000000 0.287734
v -0.360230 0.000000 0.287734
v -0.120077 0.000000 0.287734
v 0.120077 0.000000 0.287734
v 0.360230 0.000000 0.287734
v 0.600384 0.000000 0.287734
v 0.840537 0.000000 0.287734
v 1.075189 -0.367768 0.372314
v -1.065247 -0.562473 0.344296
v -0.838360 -0.418550 0.363246
v -0.605885 -0.367768 0.372314
v -0.365732 -0.367768 0.372314
v -0.125578 -0.367768 0.372314
v 0.114575 -0.367768 0.372314
v 0.354729 -0.367768 0.372314
v 0.594882 -0.367768 0.372314
v 0.835035 -0.367768 0.372314
v 1.080690 -0.237819 -0.424637
v 0.600384 -0.237819 -0.424637
v 0.360230 -0.237819 -0.424637
v 0.120077 -0.237819 -0.424637
v -0.120077 -0.237819 -0.424637
v -0.600384 -0.237819 -0.424637
v 1.044152 -0.387389 -0.211816
v -1.099266 -0.596640 -0.238313
v 0.803999 -0.387389 -0.211816
v 0.563846 -0.387389 -0.211816
v 0.323692 -0.387389 -0.211816
v 0.083539 -0.387389 -0.211816
v -0.156614 -0.387389 -0.211816
v -0.396768 -0.387389 -0.211816
v -0.636921 -0.387389 -0.211816
v -0.870204 -0.437804 -0.220222
vt 0.888889 0.739873
vt 0.888889 1.000000
vt 1.000000 1.000000
vt 1.000000 0.739873
vt 0.888889 0.249599
vt 0.888889 0.500000
vt 1.000000 0.500000
vt 1.000000 0.249599
vt 0.888889 0.000000
vt 1.000000 0.000000
vt 0.000000 0.500000
vt 0.000000 0.739873
vt 0.111111 0.739873
vt 0.111111 0.500000
vt 0.222222 0.739873
vt 0.222222 0.500000
vt 0.333333 0.739873
vt 0.333333 0.500000
vt 0.444444 0.739873
vt 0.444444 0.500000
vt 0.555556 0.739873
vt 0.555556 0.500000
vt 0.666667 0.739873
vt 0.666667 0.500000
vt 0.777778 0.739873
vt 0.777778 0.500000
vt 0.000000 0.000000
vt 0.000000 0.249599
vt 0.111111 0.249599
vt 0.111111 0.000000
vt 0.222222 0.249598
vt 0.222222 0.000000
vt 0.333333 0.249599
vt 0.333333 0.000000
vt 0.444444 0.249599
vt 0.444444 0.000000
vt 0.555556 0.249599
vt 0.555556 0.000000
vt 0.666667 0.249599
vt 0.666667 0.000000
vt 0.777778 0.249599
vt 0.777778 0.000000
vt 0.000000 1.000000
vt 0.111111 1.000000
vt 0.222222 1.000000
vt 0.333333 1.000000
vt 0.444444 1.000000
vt 0.555556 1.000000
vt 0.666667 1.000000
vt 0.777778 1.000000
vt 0.555556 1.000000
vt 0.666667 1.000000
vt 0.888889 1.000000
vt 1.000000 1.000000
vt 0.111111 1.000000
vt 0.222222 1.000000
vt 0.444444 1.000000
vt 0.777778 1.000000
vt 0.333333 1.000000
vt 0.000000 1.000000
vt 0.666667 0.000000
vt 0.555556 0.000000
vt 0.333333 0.000000
vt 0.222222 0.000000
vt 1.000000 0.000000
vt 0.888889 0.000000
vt 0.777778 0.000000
vt 0.444444 0.000000
vt 0.111111 0.000000
vt 0.000000 0.000000
vt 1.000000 0.000000
vt 0.888889 0.000000
vn 0.4461 -0.5864 -0.6761
vn 0.5361 -0.8306 0.1508
vn 0.3589 -0.5111 0.7810
vn 0.5146 -0.8463 -0.1375
vn 0.0000 -1.0000 0.0000
vn 0.2214 -0.9752 -0.0045
vn 0.0000 -0.4631 0.8863
vn 0.1050 -0.4847 0.8684
vn 0.2258 -0.9741 0.0079
vn 0.0000 -0.6823 -0.7310
vn 0.1553 -0.6635 -0.7318
vn 0.0000 0.6112 -0.7915
vn -0.3106 0.5880 -0.7469
vn -0.1027 0.6103 -0.7855
vn 0.0000 0.8182 0.5750
vn -0.5392 0.7298 0.4203
vn -0.1962 0.8178 0.5410
vn -0.5528 0.8333 -0.0070
usemtl None
s off
f 37/1/1 13/2/1 3/3/1 8/4/1
f 29/5/2 21/6/2 4/7/2 7/8/2
f 12/9/3 29/5/3 7/8/3 1/10/3
f 21/6/4 37/1/4 8/4/4 4/7/4
f 5/11/5 9/12/5 44/13/5 28/14/5
f 28/14/5 44/13/5 43/15/5 26/16/5
f 26/16/5 43/15/5 42/17/5 25/18/5
f 25/18/5 42/17/5 41/19/5 24/20/5
f 24/20/5 41/19/5 40/21/5 27/22/5
f 27/22/5 40/21/5 39/23/5 23/24/5
f 23/24/5 39/23/5 38/25/5 22/26/5
f 22/26/6 38/25/6 37/1/6 21/6/6
f 55/27/7 6/28/7 36/29/7 10/30/7
f 10/30/7 36/29/7 35/31/7 56/32/7
f 56/32/7 35/31/7 34/33/7 57/34/7
f 57/34/7 34/33/7 33/35/7 58/36/7
f 58/36/7 33/35/7 32/37/7 59/38/7
f 59/38/7 32/37/7 31/39/7 11/40/7
f 11/40/7 31/39/7 30/41/7 60/42/7
f 60/42/8 30/41/8 29/5/8 12/9/8
f 6/28/5 5/11/5 28/14/5 36/29/5
f 36/29/5 28/14/5 26/16/5 35/31/5
f 35/31/5 26/16/5 25/18/5 34/33/5
f 34/33/5 25/18/5 24/20/5 33/35/5
f 33/35/5 24/20/5 27/22/5 32/37/5
f 32/37/5 27/22/5 23/24/5 31/39/5
f 31/39/5 23/24/5 22/26/5 30/41/5
f 30/41/9 22/26/9 21/6/9 29/5/9
f 9/12/10 2/43/10 20/44/10 44/13/10
f 44/13/10 20/44/10 19/45/10 43/15/10
f 43/15/10 19/45/10 18/46/10 42/17/10
f 42/17/10 18/46/10 17/47/10 41/19/10
f 41/19/10 17/47/10 16/48/10 40/21/10
f 40/21/10 16/48/10 15/49/10 39/23/10
f 39/23/10 15/49/10 14/50/10 38/25/10
f 38/25/11 14/50/11 13/2/11 37/1/11
f 16/48/12 50/51/12 49/52/12 15/49/12
f 13/2/13 47/53/13 46/54/13 3/3/13
f 20/44/12 54/55/12 53/56/12 19/45/12
f 17/47/12 51/57/12 50/51/12 16/48/12
f 14/50/14 48/58/14 47/53/14 13/2/14
f 18/46/12 52/59/12 51/57/12 17/47/12
f 15/49/12 49/52/12 48/58/12 14/50/12
f 19/45/12 53/56/12 52/59/12 18/46/12
f 2/43/12 45/60/12 54/55/12 20/44/12
f 11/40/15 68/61/15 67/62/15 59/38/15
f 57/34/15 65/63/15 64/64/15 56/32/15
f 1/10/16 62/65/16 70/66/16 12/9/16
f 60/42/15 69/67/15 68/61/15 11/40/15
f 58/36/15 66/68/15 65/63/15 57/34/15
f 10/30/15 63/69/15 61/70/15 55/27/15
f 12/9/17 70/66/17 69/67/17 60/42/17
f 59/38/15 67/62/15 66/68/15 58/36/15
f 56/32/15 64/64/15 63/69/15 10/30/15
f 62/65/18 46/71/18 47/72/18 70/66/18
