{
    "asset" : {
        "generator" : "Khronos glTF Blender I/O v1.7.33",
        "version" : "2.0"
    },
    "scene" : 0,
    "scenes" : [
        {
            "name" : "Scene",
            "nodes" : [
                0
            ]
        }
    ],
    "nodes" : [
        {
            "mesh" : 0,
            "name" : "Plane"
        }
    ],
    "materials" : [
        {
            "doubleSided" : true,
            "name" : "Grass1",
            "pbrMetallicRoughness" : {
                "baseColorFactor" : [
                    0.057299450039863586,
                    0.4279227554798126,
                    0.016508739441633224,
                    1
                ],
                "metallicFactor" : 0
            }
        },
        {
            "doubleSided" : true,
            "name" : "Grass2",
            "pbrMetallicRoughness" : {
                "baseColorFactor" : [
                    0.001763553824275732,
                    0.0881892517209053,
                    0.005215882323682308,
                    1
                ],
                "metallicFactor" : 0
            }
        },
        {
            "doubleSided" : true,
            "name" : "Grass3",
            "pbrMetallicRoughness" : {
                "baseColorFactor" : [
                    0.013502051122486591,
                    0.051833074539899826,
                    0.0026319094467908144,
                    1
                ],
                "metallicFactor" : 0
            }
        }
    ],
    "meshes" : [
        {
            "name" : "Plane",
            "primitives" : [
                {
                    "attributes" : {
                        "POSITION" : 0,
                        "NORMAL" : 1
                    },
                    "indices" : 2,
                    "material" : 0
                },
                {
                    "attributes" : {
                        "POSITION" : 3,
                        "NORMAL" : 4
                    },
                    "indices" : 5,
                    "material" : 1
                },
                {
                    "attributes" : {
                        "POSITION" : 6,
                        "NORMAL" : 7
                    },
                    "indices" : 8,
                    "material" : 2
                }
            ]
        }
    ],
    "accessors" : [
        {
            "bufferView" : 0,
            "componentType" : 5126,
            "count" : 244,
            "max" : [
                0.20731684565544128,
                0.3339153230190277,
                0.17480620741844177
            ],
            "min" : [
                -0.18218234181404114,
                -0.003389504970982671,
                -0.18920330703258514
            ],
            "type" : "VEC3"
        },
        {
            "bufferView" : 1,
            "componentType" : 5126,
            "count" : 244,
            "type" : "VEC3"
        },
        {
            "bufferView" : 2,
            "componentType" : 5123,
            "count" : 366,
            "type" : "SCALAR"
        },
        {
            "bufferView" : 3,
            "componentType" : 5126,
            "count" : 192,
            "max" : [
                0.20460447669029236,
                0.30586063861846924,
                0.22961178421974182
            ],
            "min" : [
                -0.243824303150177,
                -0.004594183061271906,
                -0.16922175884246826
            ],
            "type" : "VEC3"
        },
        {
            "bufferView" : 4,
            "componentType" : 5126,
            "count" : 192,
            "type" : "VEC3"
        },
        {
            "bufferView" : 5,
            "componentType" : 5123,
            "count" : 288,
            "type" : "SCALAR"
        },
        {
            "bufferView" : 6,
            "componentType" : 5126,
            "count" : 124,
            "max" : [
                0.14046718180179596,
                0.3284354507923126,
                0.16498032212257385
            ],
            "min" : [
                -0.12342381477355957,
                -0.004475785419344902,
                -0.20504510402679443
            ],
            "type" : "VEC3"
        },
        {
            "bufferView" : 7,
            "componentType" : 5126,
            "count" : 124,
            "type" : "VEC3"
        },
        {
            "bufferView" : 8,
            "componentType" : 5123,
            "count" : 186,
            "type" : "SCALAR"
        }
    ],
    "bufferViews" : [
        {
            "buffer" : 0,
            "byteLength" : 2928,
            "byteOffset" : 0
        },
        {
            "buffer" : 0,
            "byteLength" : 2928,
            "byteOffset" : 2928
        },
        {
            "buffer" : 0,
            "byteLength" : 732,
            "byteOffset" : 5856
        },
        {
            "buffer" : 0,
            "byteLength" : 2304,
            "byteOffset" : 6588
        },
        {
            "buffer" : 0,
            "byteLength" : 2304,
            "byteOffset" : 8892
        },
        {
            "buffer" : 0,
            "byteLength" : 576,
            "byteOffset" : 11196
        },
        {
            "buffer" : 0,
            "byteLength" : 1488,
            "byteOffset" : 11772
        },
        {
            "buffer" : 0,
            "byteLength" : 1488,
            "byteOffset" : 13260
        },
        {
            "buffer" : 0,
            "byteLength" : 372,
            "byteOffset" : 14748
        }
    ],
    "buffers" : [
        {
            "byteLength" : 15120,
            "uri" : "grass.bin"
        }
    ]
}
