{
    "asset" : {
        "generator" : "Khronos glTF Blender I/O v1.7.33",
        "version" : "2.0"
    },
    "scene" : 0,
    "scenes" : [
        {
            "name" : "Scene",
            "nodes" : [
                0
            ]
        }
    ],
    "nodes" : [
        {
            "mesh" : 0,
            "name" : "Head"
        }
    ],
    "meshes" : [
        {
            "name" : "Cube",
            "primitives" : [
                {
                    "attributes" : {
                        "POSITION" : 0,
                        "NORMAL" : 1,
                        "TEXCOORD_0" : 2
                    },
                    "indices" : 3
                }
            ]
        }
    ],
    "accessors" : [
        {
            "bufferView" : 0,
            "componentType" : 5126,
            "count" : 6687,
            "max" : [
                0.3545648455619812,
                0.3545648455619812,
                0.3511931896209717
            ],
            "min" : [
                -0.3545648157596588,
                -0.3545648455619812,
                -0.3545648455619812
            ],
            "type" : "VEC3"
        },
        {
            "bufferView" : 1,
            "componentType" : 5126,
            "count" : 6687,
            "type" : "VEC3"
        },
        {
            "bufferView" : 2,
            "componentType" : 5126,
            "count" : 6687,
            "type" : "VEC2"
        },
        {
            "bufferView" : 3,
            "componentType" : 5123,
            "count" : 36864,
            "type" : "SCALAR"
        }
    ],
    "bufferViews" : [
        {
            "buffer" : 0,
            "byteLength" : 80244,
            "byteOffset" : 0
        },
        {
            "buffer" : 0,
            "byteLength" : 80244,
            "byteOffset" : 80244
        },
        {
            "buffer" : 0,
            "byteLength" : 53496,
            "byteOffset" : 160488
        },
        {
            "buffer" : 0,
            "byteLength" : 73728,
            "byteOffset" : 213984
        }
    ],
    "buffers" : [
        {
            "byteLength" : 287712,
            "uri" : "Head.bin"
        }
    ]
}
