{
    "asset" : {
        "generator" : "Khronos glTF Blender I/O v1.7.33",
        "version" : "2.0"
    },
    "scene" : 0,
    "scenes" : [
        {
            "name" : "Scene",
            "nodes" : [
                0
            ]
        }
    ],
    "nodes" : [
        {
            "mesh" : 0,
            "name" : "Cylinder"
        }
    ],
    "materials" : [
        {
            "doubleSided" : true,
            "name" : "Bark",
            "pbrMetallicRoughness" : {
                "baseColorFactor" : [
                    0.07323510944843292,
                    0.019116917625069618,
                    0.0045931157656013966,
                    1
                ],
                "metallicFactor" : 0
            }
        },
        {
            "doubleSided" : true,
            "name" : "Wood",
            "pbrMetallicRoughness" : {
                "baseColorFactor" : [
                    0.2810085117816925,
                    0.1324632465839386,
                    0.028693627566099167,
                    1
                ],
                "metallicFactor" : 0,
                "roughnessFactor" : 0.5
            }
        },
        {
            "doubleSided" : true,
            "name" : "WoodDarker",
            "pbrMetallicRoughness" : {
                "baseColorFactor" : [
                    0.23301447927951813,
                    0.110604427754879,
                    0.024507852271199226,
                    1
                ],
                "metallicFactor" : 0,
                "roughnessFactor" : 0.5
            }
        }
    ],
    "meshes" : [
        {
            "name" : "Cylinder",
            "primitives" : [
                {
                    "attributes" : {
                        "POSITION" : 0,
                        "NORMAL" : 1,
                        "TEXCOORD_0" : 2
                    },
                    "indices" : 3,
                    "material" : 0
                },
                {
                    "attributes" : {
                        "POSITION" : 4,
                        "NORMAL" : 5,
                        "TEXCOORD_0" : 6
                    },
                    "indices" : 7,
                    "material" : 1
                },
                {
                    "attributes" : {
                        "POSITION" : 8,
                        "NORMAL" : 9,
                        "TEXCOORD_0" : 10
                    },
                    "indices" : 11,
                    "material" : 2
                }
            ]
        }
    ],
    "accessors" : [
        {
            "bufferView" : 0,
            "componentType" : 5126,
            "count" : 503,
            "max" : [
                0.7691413760185242,
                0.23587259650230408,
                0.20509561896324158
            ],
            "min" : [
                -0.7691413760185242,
                -0.20538567006587982,
                -0.20568127930164337
            ],
            "type" : "VEC3"
        },
        {
            "bufferView" : 1,
            "componentType" : 5126,
            "count" : 503,
            "type" : "VEC3"
        },
        {
            "bufferView" : 2,
            "componentType" : 5126,
            "count" : 503,
            "type" : "VEC2"
        },
        {
            "bufferView" : 3,
            "componentType" : 5123,
            "count" : 1848,
            "type" : "SCALAR"
        },
        {
            "bufferView" : 4,
            "componentType" : 5126,
            "count" : 318,
            "max" : [
                0.7691413760185242,
                0.1881820410490036,
                0.18266986310482025
            ],
            "min" : [
                -0.7691413760185242,
                -0.18266992270946503,
                -0.18266992270946503
            ],
            "type" : "VEC3"
        },
        {
            "bufferView" : 5,
            "componentType" : 5126,
            "count" : 318,
            "type" : "VEC3"
        },
        {
            "bufferView" : 6,
            "componentType" : 5126,
            "count" : 318,
            "type" : "VEC2"
        },
        {
            "bufferView" : 7,
            "componentType" : 5123,
            "count" : 1065,
            "type" : "SCALAR"
        },
        {
            "bufferView" : 8,
            "componentType" : 5126,
            "count" : 215,
            "max" : [
                0.7501320838928223,
                0.23341389000415802,
                0.13115037977695465
            ],
            "min" : [
                -0.7532050609588623,
                -0.13115033507347107,
                -0.13115032017230988
            ],
            "type" : "VEC3"
        },
        {
            "bufferView" : 9,
            "componentType" : 5126,
            "count" : 215,
            "type" : "VEC3"
        },
        {
            "bufferView" : 10,
            "componentType" : 5126,
            "count" : 215,
            "type" : "VEC2"
        },
        {
            "bufferView" : 11,
            "componentType" : 5123,
            "count" : 639,
            "type" : "SCALAR"
        }
    ],
    "bufferViews" : [
        {
            "buffer" : 0,
            "byteLength" : 6036,
            "byteOffset" : 0
        },
        {
            "buffer" : 0,
            "byteLength" : 6036,
            "byteOffset" : 6036
        },
        {
            "buffer" : 0,
            "byteLength" : 4024,
            "byteOffset" : 12072
        },
        {
            "buffer" : 0,
            "byteLength" : 3696,
            "byteOffset" : 16096
        },
        {
            "buffer" : 0,
            "byteLength" : 3816,
            "byteOffset" : 19792
        },
        {
            "buffer" : 0,
            "byteLength" : 3816,
            "byteOffset" : 23608
        },
        {
            "buffer" : 0,
            "byteLength" : 2544,
            "byteOffset" : 27424
        },
        {
            "buffer" : 0,
            "byteLength" : 2130,
            "byteOffset" : 29968
        },
        {
            "buffer" : 0,
            "byteLength" : 2580,
            "byteOffset" : 32100
        },
        {
            "buffer" : 0,
            "byteLength" : 2580,
            "byteOffset" : 34680
        },
        {
            "buffer" : 0,
            "byteLength" : 1720,
            "byteOffset" : 37260
        },
        {
            "buffer" : 0,
            "byteLength" : 1278,
            "byteOffset" : 38980
        }
    ],
    "buffers" : [
        {
            "byteLength" : 40260,
            "uri" : "Log.bin"
        }
    ]
}
