{
    "asset" : {
        "generator" : "Khronos glTF Blender I/O v1.7.33",
        "version" : "2.0"
    },
    "scene" : 0,
    "scenes" : [
        {
            "name" : "Scene",
            "nodes" : [
                0,
                1
            ]
        }
    ],
    "nodes" : [
        {
            "mesh" : 0,
            "name" : "Flower",
            "translation" : [
                0,
                0.4513000547885895,
                0
            ]
        },
        {
            "mesh" : 1,
            "name" : "Cylinder",
            "scale" : [
                0.9056894779205322,
                0.3703131377696991,
                0.9056894779205322
            ],
            "translation" : [
                0,
                0.45872536301612854,
                0
            ]
        }
    ],
    "materials" : [
        {
            "doubleSided" : true,
            "name" : "Pink",
            "pbrMetallicRoughness" : {
                "baseColorFactor" : [
                    0.8000000715255737,
                    0.08679407835006714,
                    0.7737342119216919,
                    1
                ],
                "metallicFactor" : 0,
                "roughnessFactor" : 0.32677164673805237
            }
        },
        {
            "doubleSided" : true,
            "name" : "Material.003",
            "pbrMetallicRoughness" : {
                "baseColorFactor" : [
                    0.015297474339604378,
                    0.052217476069927216,
                    0,
                    1
                ],
                "metallicFactor" : 0
            }
        },
        {
            "doubleSided" : true,
            "name" : "Material",
            "pbrMetallicRoughness" : {
                "baseColorFactor" : [
                    0.8000000715255737,
                    0.7604987621307373,
                    0,
                    1
                ],
                "metallicFactor" : 0,
                "roughnessFactor" : 0.5
            }
        }
    ],
    "meshes" : [
        {
            "name" : "Cube.001",
            "primitives" : [
                {
                    "attributes" : {
                        "POSITION" : 0,
                        "NORMAL" : 1
                    },
                    "indices" : 2,
                    "material" : 0
                }
            ]
        },
        {
            "name" : "Cylinder",
            "primitives" : [
                {
                    "attributes" : {
                        "POSITION" : 3,
                        "NORMAL" : 4,
                        "TEXCOORD_0" : 5
                    },
                    "indices" : 6,
                    "material" : 1
                },
                {
                    "attributes" : {
                        "POSITION" : 7,
                        "NORMAL" : 8,
                        "TEXCOORD_0" : 9
                    },
                    "indices" : 10,
                    "material" : 2
                }
            ]
        }
    ],
    "accessors" : [
        {
            "bufferView" : 0,
            "componentType" : 5126,
            "count" : 4008,
            "max" : [
                0.18620969355106354,
                0.13246580958366394,
                0.1733664870262146
            ],
            "min" : [
                -0.16650989651679993,
                -0.0012541594915091991,
                -0.19769038259983063
            ],
            "type" : "VEC3"
        },
        {
            "bufferView" : 1,
            "componentType" : 5126,
            "count" : 4008,
            "type" : "VEC3"
        },
        {
            "bufferView" : 2,
            "componentType" : 5123,
            "count" : 23760,
            "type" : "SCALAR"
        },
        {
            "bufferView" : 3,
            "componentType" : 5126,
            "count" : 162,
            "max" : [
                0.05000004172325134,
                0.015500030480325222,
                0.05000004172325134
            ],
            "min" : [
                -0.05000004172325134,
                -1.2493740320205688,
                -0.05000004172325134
            ],
            "type" : "VEC3"
        },
        {
            "bufferView" : 4,
            "componentType" : 5126,
            "count" : 162,
            "type" : "VEC3"
        },
        {
            "bufferView" : 5,
            "componentType" : 5126,
            "count" : 162,
            "type" : "VEC2"
        },
        {
            "bufferView" : 6,
            "componentType" : 5123,
            "count" : 666,
            "type" : "SCALAR"
        },
        {
            "bufferView" : 7,
            "componentType" : 5126,
            "count" : 32,
            "max" : [
                0.05000004172325134,
                0.015500030480325222,
                0.05000004172325134
            ],
            "min" : [
                -0.05000004172325134,
                0.015500030480325222,
                -0.05000004172325134
            ],
            "type" : "VEC3"
        },
        {
            "bufferView" : 8,
            "componentType" : 5126,
            "count" : 32,
            "type" : "VEC3"
        },
        {
            "bufferView" : 9,
            "componentType" : 5126,
            "count" : 32,
            "type" : "VEC2"
        },
        {
            "bufferView" : 10,
            "componentType" : 5123,
            "count" : 90,
            "type" : "SCALAR"
        }
    ],
    "bufferViews" : [
        {
            "buffer" : 0,
            "byteLength" : 48096,
            "byteOffset" : 0
        },
        {
            "buffer" : 0,
            "byteLength" : 48096,
            "byteOffset" : 48096
        },
        {
            "buffer" : 0,
            "byteLength" : 47520,
            "byteOffset" : 96192
        },
        {
            "buffer" : 0,
            "byteLength" : 1944,
            "byteOffset" : 143712
        },
        {
            "buffer" : 0,
            "byteLength" : 1944,
            "byteOffset" : 145656
        },
        {
            "buffer" : 0,
            "byteLength" : 1296,
            "byteOffset" : 147600
        },
        {
            "buffer" : 0,
            "byteLength" : 1332,
            "byteOffset" : 148896
        },
        {
            "buffer" : 0,
            "byteLength" : 384,
            "byteOffset" : 150228
        },
        {
            "buffer" : 0,
            "byteLength" : 384,
            "byteOffset" : 150612
        },
        {
            "buffer" : 0,
            "byteLength" : 256,
            "byteOffset" : 150996
        },
        {
            "buffer" : 0,
            "byteLength" : 180,
            "byteOffset" : 151252
        }
    ],
    "buffers" : [
        {
            "byteLength" : 151432,
            "uri" : "Lotus.bin"
        }
    ]
}
