# Blender v3.0.0 OBJ File: ''
# www.blender.org
mtllib lowpoly_tree_translated.mtl
o Cylinder
v 0.015674 4.378059 -0.253986
v 0.019167 5.138726 0.022685
v 0.028745 5.138726 0.026171
v 0.199847 4.378060 -0.186952
v 0.033842 5.138726 0.034998
v 0.292234 4.314733 -0.023413
v 0.032072 5.138726 0.045036
v 0.263809 4.378059 0.175798
v 0.024263 5.138726 0.051588
v 0.113670 4.378059 0.301780
v 0.014070 5.138726 0.051588
v -0.087932 4.314733 0.295584
v 0.006262 5.138726 0.045036
v -0.232462 4.378059 0.175798
v 0.004492 5.138726 0.034998
v -0.266496 4.378059 -0.017217
v 0.009589 5.138726 0.026171
v -0.174109 4.314733 -0.193148
v -0.005440 1.102249 -0.939428
v 0.637348 1.102249 -0.705472
v 0.979368 0.908172 -0.113076
v 0.860586 0.908172 0.560572
v 0.336580 1.102249 1.000265
v -0.353069 1.038923 0.994068
v -0.871465 0.908172 0.560572
v -0.990247 0.908172 -0.113076
v -0.653837 0.844845 -0.711668
v -1.162461 0.856839 -0.150182
v -0.862932 1.458305 -0.094124
v -0.569643 1.394979 -0.618026
v -0.766733 0.793513 -0.851516
v -0.002290 1.458305 -0.816288
v -0.006855 0.856839 -1.119851
v -1.023078 0.856839 0.640299
v -0.759126 1.458305 0.494589
v -0.413802 0.793513 1.150053
v -0.306797 1.394979 0.872648
v 0.394483 0.856839 1.156250
v 0.296607 1.458305 0.878845
v 1.009368 0.856839 0.640300
v 0.754545 1.458305 0.494589
v 1.143143 0.793513 -0.156378
v 0.858351 1.458305 -0.094124
v 0.747414 0.856839 -0.845319
v 0.559453 1.458305 -0.611830
v -0.470645 3.604554 -0.047718
v -0.162981 4.428150 0.010068
v -0.106769 4.364823 -0.103204
v -0.309076 3.541227 -0.343475
v 0.015024 4.428150 -0.139296
v 0.010725 3.604554 -0.451635
v -0.412585 3.604554 0.281558
v -0.141511 4.428150 0.131830
v -0.162062 3.541228 0.490282
v -0.052405 4.364823 0.205109
v 0.177903 3.604554 0.496478
v 0.076845 4.428150 0.211305
v 0.434034 3.604554 0.281558
v 0.171559 4.428150 0.131830
v 0.486486 3.541227 -0.053915
v 0.193029 4.428150 0.010068
v 0.324917 3.604554 -0.337279
v 0.131209 4.428150 -0.097008
v 0.005286 2.754391 -0.671042
v 0.010529 3.657101 -0.315061
v 0.242392 3.657101 -0.230669
v 0.463775 2.754391 -0.504165
v 0.365764 3.657101 -0.016983
v 0.702124 2.691064 -0.087815
v 0.322917 3.657101 0.226012
v 0.623007 2.754391 0.398883
v 0.133901 3.657101 0.384616
v 0.249243 2.754391 0.712509
v -0.118452 3.593775 0.378420
v -0.244281 2.691065 0.706312
v -0.301860 3.657101 0.226012
v -0.612436 2.754391 0.398883
v -0.344706 3.657101 -0.016983
v -0.697161 2.754391 -0.081619
v -0.458813 2.691065 -0.510362
v -0.226943 3.593774 -0.236866
v -0.864248 1.990536 -0.105654
v -0.545192 2.806453 -0.046827
v -0.359524 2.743126 -0.384325
v -0.569569 1.927210 -0.631965
v 0.005569 2.806453 -0.508971
v 0.000399 1.990536 -0.831178
v -0.759959 1.990537 0.485799
v -0.478762 2.806453 0.329916
v -0.305499 1.927210 0.865646
v -0.191317 2.743126 0.569622
v 0.300687 1.990537 0.871843
v 0.196847 2.806453 0.575818
v 0.760756 1.990536 0.485799
v 0.489901 2.806453 0.329917
v 0.859436 1.927210 -0.111850
v 0.556331 2.806453 -0.046827
v 0.564756 1.990537 -0.625769
v 0.365054 2.806453 -0.378129
v -0.003388 1.398751 -0.997131
v 0.001149 2.048210 -0.681816
v 0.474390 2.048211 -0.509570
v 0.669916 1.398752 -0.752068
v 0.726197 2.048210 -0.073428
v 1.022565 1.335425 -0.137744
v 0.638746 2.048211 0.422534
v 0.903752 1.398752 0.574081
v 0.252955 2.048211 0.746250
v 0.354870 1.398752 1.034648
v -0.256267 1.984884 0.740054
v -0.367254 1.335425 1.028452
v -0.636448 2.048211 0.422534
v -0.910528 1.398752 0.574081
v -0.723899 2.048210 -0.073428
v -1.034949 1.398751 -0.131548
v -0.682301 1.335425 -0.758265
v -0.477702 1.984884 -0.515766
v -0.018886 0.597302 -0.264436
v -0.018886 1.191531 -0.373037
v 0.231064 1.191531 -0.282063
v 0.161257 0.597302 -0.198870
v 0.364060 1.191531 -0.051708
v 0.257109 0.597302 -0.032850
v 0.317871 1.191531 0.210242
v 0.223820 0.597302 0.155942
v 0.114110 1.191531 0.381218
v 0.076966 0.597302 0.279167
v -0.151881 1.191531 0.381218
v -0.114738 0.597302 0.279166
v -0.355642 1.191531 0.210242
v -0.261591 0.597302 0.155942
v -0.401831 1.191531 -0.051708
v -0.294880 0.597302 -0.032850
v -0.268836 1.191531 -0.282063
v -0.199028 0.597302 -0.198870
v -0.018886 0.016085 -0.373037
v 0.231064 0.016085 -0.282063
v 0.364060 0.016085 -0.051708
v 0.317871 0.016085 0.210242
v 0.114110 0.016085 0.381218
v -0.151881 0.016085 0.381218
v -0.355642 0.016085 0.210242
v -0.401831 0.016085 -0.051708
v -0.268836 0.016085 -0.282063
vn 0.3238 0.3221 -0.8896
vn 0.8730 0.3022 -0.3827
vn 0.9536 0.2971 0.0477
vn 0.6109 0.3112 0.7280
vn -0.1164 0.2965 0.9479
vn -0.5313 0.3015 0.7917
vn -0.9327 0.3210 0.1645
vn 0.0000 1.0000 0.0000
vn -0.3809 0.3169 -0.8686
vn -0.7898 0.3166 -0.5253
vn 0.0415 -0.9991 0.0024
vn -0.7667 0.4310 -0.4757
vn -0.3356 0.4304 -0.8379
vn -0.8898 0.4285 0.1569
vn -0.5511 0.4230 0.7193
vn -0.0455 0.4187 0.9070
vn 0.5844 0.4163 0.6965
vn 0.9079 0.3960 0.1376
vn 0.8023 0.4025 -0.4408
vn 0.3093 0.4266 -0.8499
vn -0.7838 0.3370 -0.5217
vn -0.3783 0.3367 -0.8623
vn -0.9279 0.3351 0.1636
vn -0.5277 0.3288 0.7832
vn -0.1127 0.3256 0.9388
vn 0.6078 0.3254 0.7244
vn 0.9437 0.3122 0.1093
vn 0.8444 0.3173 -0.4317
vn 0.3224 0.3342 -0.8857
vn 0.3209 0.3458 -0.8817
vn 0.8325 0.3304 -0.4447
vn 0.9366 0.3260 0.1283
vn 0.6047 0.3390 0.7207
vn -0.0735 0.3409 0.9372
vn -0.5534 0.3441 0.7585
vn -0.9230 0.3487 0.1627
vn -0.3579 0.3490 -0.8661
vn -0.7906 0.3500 -0.5024
vn -0.7957 0.3507 -0.4939
vn -0.3486 0.3496 -0.8696
vn -0.9228 0.3491 0.1627
vn -0.5664 0.3446 0.7487
vn -0.0551 0.3408 0.9385
vn 0.6048 0.3385 0.7208
vn 0.9359 0.3243 0.1375
vn 0.8290 0.3293 -0.4520
vn 0.3209 0.3461 -0.8816
vn 0.3114 0.4133 -0.8557
vn 0.8077 0.3910 -0.4412
vn 0.9129 0.3849 0.1357
vn 0.5881 0.4035 0.7009
vn -0.0509 0.4056 0.9126
vn -0.5513 0.4096 0.7268
vn -0.8960 0.4150 0.1580
vn -0.3404 0.4168 -0.8429
vn -0.7708 0.4174 -0.4812
vn 0.1824 -0.8628 0.4715
vn 0.4346 -0.8567 0.2778
vn 0.4511 -0.8889 -0.0795
vn 0.0338 -0.8164 -0.5765
vn 0.3326 -0.8240 -0.4586
vn -0.3049 -0.8804 -0.3633
vn -0.6502 -0.7582 0.0485
vn -0.6189 -0.7661 0.1734
vn -0.1439 -0.9072 0.3954
vn -0.1295 -0.9255 0.3559
vn -0.5359 -0.8196 0.2028
vn -0.5873 -0.8093 -0.0082
vn -0.2691 -0.9081 -0.3207
vn 0.1984 -0.8870 -0.4170
vn 0.1156 -0.8858 -0.4495
vn 0.3987 -0.9144 -0.0703
vn 0.3033 -0.9077 0.2901
vn 0.2296 -0.9091 0.3477
vn 0.2137 -0.9379 0.2733
vn 0.2322 -0.9377 0.2586
vn 0.3356 -0.9401 -0.0592
vn 0.1208 -0.9255 -0.3590
vn 0.1379 -0.9257 -0.3523
vn -0.2263 -0.9360 -0.2697
vn -0.5129 -0.8581 -0.0235
vn -0.4618 -0.8659 0.1920
vn -0.1107 -0.9462 0.3041
vn -0.1302 -0.9247 0.3577
vn -0.5031 -0.8320 0.2339
vn -0.5695 -0.8205 -0.0494
vn -0.2660 -0.9104 -0.3170
vn 0.1072 -0.9038 -0.4144
vn 0.1839 -0.9047 -0.3844
vn 0.3927 -0.9170 -0.0692
vn 0.2232 -0.9201 0.3218
vn 0.2799 -0.9193 0.2765
vn 0.2434 -0.9398 0.2401
vn 0.1938 -0.9402 0.2801
vn 0.3381 -0.9392 -0.0596
vn 0.1572 -0.9309 -0.3297
vn 0.0922 -0.9303 -0.3550
vn -0.2282 -0.9348 -0.2720
vn -0.4989 -0.8656 -0.0432
vn -0.4422 -0.8730 0.2057
vn -0.1133 -0.9435 0.3114
vn -0.2817 -0.5673 0.7738
vn -0.6966 -0.6658 0.2673
vn -0.4648 -0.8844 -0.0418
vn -0.5116 -0.7239 -0.4627
vn 0.0523 -0.5359 -0.8427
vn 0.4635 -0.7303 -0.5019
vn 0.2956 -0.9539 -0.0521
vn 0.3663 -0.7441 0.5587
vn 0.2118 -0.9540 0.2122
vn 0.3371 -0.1693 -0.9261
vn 0.8535 -0.1693 -0.4928
vn 0.9706 -0.1693 0.1711
vn 0.6335 -0.1693 0.7550
vn -0.0000 -0.1693 0.9856
vn -0.6335 -0.1693 0.7550
vn -0.9706 -0.1693 0.1711
vn -0.3371 -0.1693 -0.9261
vn -0.8535 -0.1693 -0.4928
vn 0.0000 -1.0000 -0.0000
vn -0.8530 0.1729 -0.4925
vn -0.3369 0.1729 -0.9255
vn -0.9700 0.1729 0.1710
vn -0.6331 0.1729 0.7545
vn -0.0000 0.1729 0.9849
vn 0.6331 0.1729 0.7545
vn 0.9700 0.1729 0.1710
vn 0.8530 0.1729 -0.4925
vn 0.3369 0.1729 -0.9255
usemtl Leaves
s 1
f 1//1 2//1 3//1 4//1
f 4//2 3//2 5//2 6//2
f 6//3 5//3 7//3 8//3
f 8//4 7//4 9//4 10//4
f 10//5 9//5 11//5 12//5
f 12//6 11//6 13//6 14//6
f 14//7 13//7 15//7 16//7
f 3//8 2//8 17//8 15//8 13//8 11//8 9//8 7//8 5//8
f 18//9 17//9 2//9 1//9
f 16//10 15//10 17//10 18//10
f 19//11 20//11 21//11 22//11 23//11 24//11 25//11 26//11 27//11
f 28//12 29//12 30//12 31//12
f 31//13 30//13 32//13 33//13
f 34//14 35//14 29//14 28//14
f 36//15 37//15 35//15 34//15
f 38//16 39//16 37//16 36//16
f 40//17 41//17 39//17 38//17
f 42//18 43//18 41//18 40//18
f 44//19 45//19 43//19 42//19
f 33//20 32//20 45//20 44//20
f 46//21 47//21 48//21 49//21
f 49//22 48//22 50//22 51//22
f 52//23 53//23 47//23 46//23
f 54//24 55//24 53//24 52//24
f 56//25 57//25 55//25 54//25
f 58//26 59//26 57//26 56//26
f 60//27 61//27 59//27 58//27
f 62//28 63//28 61//28 60//28
f 51//29 50//29 63//29 62//29
f 64//30 65//30 66//30 67//30
f 67//31 66//31 68//31 69//31
f 69//32 68//32 70//32 71//32
f 71//33 70//33 72//33 73//33
f 73//34 72//34 74//34 75//34
f 75//35 74//35 76//35 77//35
f 77//36 76//36 78//36 79//36
f 80//37 81//37 65//37 64//37
f 79//38 78//38 81//38 80//38
f 82//39 83//39 84//39 85//39
f 85//40 84//40 86//40 87//40
f 88//41 89//41 83//41 82//41
f 90//42 91//42 89//42 88//42
f 92//43 93//43 91//43 90//43
f 94//44 95//44 93//44 92//44
f 96//45 97//45 95//45 94//45
f 98//46 99//46 97//46 96//46
f 87//47 86//47 99//47 98//47
f 100//48 101//48 102//48 103//48
f 103//49 102//49 104//49 105//49
f 105//50 104//50 106//50 107//50
f 107//51 106//51 108//51 109//51
f 109//52 108//52 110//52 111//52
f 111//53 110//53 112//53 113//53
f 113//54 112//54 114//54 115//54
f 116//55 117//55 101//55 100//55
f 115//56 114//56 117//56 116//56
f 47//57 16//57 18//57 48//57
f 48//58 18//58 1//58 50//58
f 53//59 14//59 16//59 47//59
f 55//60 12//60 14//60 53//60
f 57//61 10//61 12//61 55//61
f 59//62 8//62 10//62 57//62
f 61//63 6//63 8//63 59//63
f 63//64 4//64 6//64 61//64
f 50//65 1//65 4//65 63//65
f 65//66 51//66 62//66 66//66
f 66//67 62//67 60//67 68//67
f 68//68 60//68 58//68 70//68
f 70//69 58//69 56//69 72//69
f 72//70 56//70 54//70 74//70
f 74//71 54//71 52//71 76//71
f 76//72 52//72 46//72 78//72
f 81//73 49//73 51//73 65//73
f 78//74 46//74 49//74 81//74
f 83//75 79//75 80//75 84//75
f 84//76 80//76 64//76 86//76
f 89//77 77//77 79//77 83//77
f 91//78 75//78 77//78 89//78
f 93//79 73//79 75//79 91//79
f 95//80 71//80 73//80 93//80
f 97//81 69//81 71//81 95//81
f 99//82 67//82 69//82 97//82
f 86//83 64//83 67//83 99//83
f 101//84 87//84 98//84 102//84
f 102//85 98//85 96//85 104//85
f 104//86 96//86 94//86 106//86
f 106//87 94//87 92//87 108//87
f 108//88 92//88 90//88 110//88
f 110//89 90//89 88//89 112//89
f 112//90 88//90 82//90 114//90
f 117//91 85//91 87//91 101//91
f 114//92 82//92 85//92 117//92
f 29//93 115//93 116//93 30//93
f 30//94 116//94 100//94 32//94
f 35//95 113//95 115//95 29//95
f 37//96 111//96 113//96 35//96
f 39//97 109//97 111//97 37//97
f 41//98 107//98 109//98 39//98
f 43//99 105//99 107//99 41//99
f 45//100 103//100 105//100 43//100
f 32//101 100//101 103//101 45//101
f 19//102 33//102 44//102 20//102
f 20//103 44//103 42//103 21//103
f 21//104 42//104 40//104 22//104
f 22//105 40//105 38//105 23//105
f 23//106 38//106 36//106 24//106
f 24//107 36//107 34//107 25//107
f 25//108 34//108 28//108 26//108
f 27//109 31//109 33//109 19//109
f 26//110 28//110 31//110 27//110
usemtl Bark
f 118//111 119//111 120//111 121//111
f 121//112 120//112 122//112 123//112
f 123//113 122//113 124//113 125//113
f 125//114 124//114 126//114 127//114
f 127//115 126//115 128//115 129//115
f 129//116 128//116 130//116 131//116
f 131//117 130//117 132//117 133//117
f 120//8 119//8 134//8 132//8 130//8 128//8 126//8 124//8 122//8
f 135//118 134//118 119//118 118//118
f 133//119 132//119 134//119 135//119
f 136//120 137//120 138//120 139//120 140//120 141//120 142//120 143//120 144//120
f 143//121 133//121 135//121 144//121
f 144//122 135//122 118//122 136//122
f 142//123 131//123 133//123 143//123
f 141//124 129//124 131//124 142//124
f 140//125 127//125 129//125 141//125
f 139//126 125//126 127//126 140//126
f 138//127 123//127 125//127 139//127
f 137//128 121//128 123//128 138//128
f 136//129 118//129 121//129 137//129
