{
    "asset" : {
        "generator" : "Khronos glTF Blender I/O v1.7.33",
        "version" : "2.0"
    },
    "scene" : 0,
    "scenes" : [
        {
            "name" : "Scene",
            "nodes" : [
                0,
                1,
                2
            ]
        }
    ],
    "nodes" : [
        {
            "mesh" : 0,
            "name" : "enemy 3 eyes",
            "rotation" : [
                0,
                1,
                0,
                -1.6292068494294654e-07
            ],
            "translation" : [
                -0.015349745750427246,
                0.3626071810722351,
                0
            ]
        },
        {
            "mesh" : 1,
            "name" : "enemy 3 body",
            "rotation" : [
                0,
                1,
                0,
                -1.6292068494294654e-07
            ],
            "translation" : [
                -0.015349745750427246,
                0.3626071810722351,
                0
            ]
        },
        {
            "mesh" : 2,
            "name" : "MagicianHat",
            "scale" : [
                0.541822612285614,
                0.541822612285614,
                0.541822612285614
            ],
            "translation" : [
                0,
                1.115886926651001,
                0
            ]
        }
    ],
    "materials" : [
        {
            "doubleSided" : true,
            "name" : "enemy_3_eyes",
            "pbrMetallicRoughness" : {
                "baseColorFactor" : [
                    0.052218083292245865,
                    0.039706215262413025,
                    0.031159240752458572,
                    1
                ],
                "metallicFactor" : 0
            }
        },
        {
            "doubleSided" : true,
            "name" : "enemy_3_body",
            "pbrMetallicRoughness" : {
                "baseColorFactor" : [
                    1,
                    0.5949181914329529,
                    0.332068532705307,
                    1
                ],
                "metallicFactor" : 0,
                "roughnessFactor" : 0.5
            }
        },
        {
            "doubleSided" : true,
            "name" : "HatLow",
            "pbrMetallicRoughness" : {
                "baseColorFactor" : [
                    0.007843328639864922,
                    0,
                    0.8000000715255737,
                    1
                ],
                "metallicFactor" : 0
            }
        },
        {
            "doubleSided" : true,
            "name" : "Detail",
            "pbrMetallicRoughness" : {
                "baseColorFactor" : [
                    0.8000000715255737,
                    0.48517942428588867,
                    0.052083227783441544,
                    1
                ],
                "metallicFactor" : 0,
                "roughnessFactor" : 0.15243902802467346
            }
        }
    ],
    "meshes" : [
        {
            "name" : "Cylinder.002",
            "primitives" : [
                {
                    "attributes" : {
                        "POSITION" : 0,
                        "NORMAL" : 1,
                        "TEXCOORD_0" : 2
                    },
                    "indices" : 3,
                    "material" : 0
                }
            ]
        },
        {
            "name" : "Cube",
            "primitives" : [
                {
                    "attributes" : {
                        "POSITION" : 4,
                        "NORMAL" : 5,
                        "TEXCOORD_0" : 6
                    },
                    "indices" : 7,
                    "material" : 1
                }
            ]
        },
        {
            "name" : "Cone",
            "primitives" : [
                {
                    "attributes" : {
                        "POSITION" : 8,
                        "NORMAL" : 9,
                        "TEXCOORD_0" : 10
                    },
                    "indices" : 11,
                    "material" : 2
                },
                {
                    "attributes" : {
                        "POSITION" : 12,
                        "NORMAL" : 13,
                        "TEXCOORD_0" : 14
                    },
                    "indices" : 15,
                    "material" : 3
                }
            ]
        }
    ],
    "accessors" : [
        {
            "bufferView" : 0,
            "componentType" : 5126,
            "count" : 478,
            "max" : [
                0.27351200580596924,
                0.10241569578647614,
                -0.37056779861450195
            ],
            "min" : [
                -0.27351200580596924,
                -0.058635033667087555,
                -0.4673786759376526
            ],
            "type" : "VEC3"
        },
        {
            "bufferView" : 1,
            "componentType" : 5126,
            "count" : 478,
            "type" : "VEC3"
        },
        {
            "bufferView" : 2,
            "componentType" : 5126,
            "count" : 478,
            "type" : "VEC2"
        },
        {
            "bufferView" : 3,
            "componentType" : 5123,
            "count" : 1128,
            "type" : "SCALAR"
        },
        {
            "bufferView" : 4,
            "componentType" : 5126,
            "count" : 207,
            "max" : [
                0.4804996848106384,
                0.33112794160842896,
                0.48049965500831604
            ],
            "min" : [
                -0.4804996848106384,
                -0.36914312839508057,
                -0.4804996848106384
            ],
            "type" : "VEC3"
        },
        {
            "bufferView" : 5,
            "componentType" : 5126,
            "count" : 207,
            "type" : "VEC3"
        },
        {
            "bufferView" : 6,
            "componentType" : 5126,
            "count" : 207,
            "type" : "VEC2"
        },
        {
            "bufferView" : 7,
            "componentType" : 5123,
            "count" : 960,
            "type" : "SCALAR"
        },
        {
            "bufferView" : 8,
            "componentType" : 5126,
            "count" : 240,
            "max" : [
                1.3620388507843018,
                0.8409880995750427,
                1.3620389699935913
            ],
            "min" : [
                -1.3620388507843018,
                -1.0658702850341797,
                -1.3620388507843018
            ],
            "type" : "VEC3"
        },
        {
            "bufferView" : 9,
            "componentType" : 5126,
            "count" : 240,
            "type" : "VEC3"
        },
        {
            "bufferView" : 10,
            "componentType" : 5126,
            "count" : 240,
            "type" : "VEC2"
        },
        {
            "bufferView" : 11,
            "componentType" : 5123,
            "count" : 1146,
            "type" : "SCALAR"
        },
        {
            "bufferView" : 12,
            "componentType" : 5126,
            "count" : 64,
            "max" : [
                0.6911258697509766,
                -0.3911318778991699,
                0.6891919374465942
            ],
            "min" : [
                -0.6912243962287903,
                -0.7186514735221863,
                -0.6914411187171936
            ],
            "type" : "VEC3"
        },
        {
            "bufferView" : 13,
            "componentType" : 5126,
            "count" : 64,
            "type" : "VEC3"
        },
        {
            "bufferView" : 14,
            "componentType" : 5126,
            "count" : 64,
            "type" : "VEC2"
        },
        {
            "bufferView" : 15,
            "componentType" : 5123,
            "count" : 288,
            "type" : "SCALAR"
        }
    ],
    "bufferViews" : [
        {
            "buffer" : 0,
            "byteLength" : 5736,
            "byteOffset" : 0
        },
        {
            "buffer" : 0,
            "byteLength" : 5736,
            "byteOffset" : 5736
        },
        {
            "buffer" : 0,
            "byteLength" : 3824,
            "byteOffset" : 11472
        },
        {
            "buffer" : 0,
            "byteLength" : 2256,
            "byteOffset" : 15296
        },
        {
            "buffer" : 0,
            "byteLength" : 2484,
            "byteOffset" : 17552
        },
        {
            "buffer" : 0,
            "byteLength" : 2484,
            "byteOffset" : 20036
        },
        {
            "buffer" : 0,
            "byteLength" : 1656,
            "byteOffset" : 22520
        },
        {
            "buffer" : 0,
            "byteLength" : 1920,
            "byteOffset" : 24176
        },
        {
            "buffer" : 0,
            "byteLength" : 2880,
            "byteOffset" : 26096
        },
        {
            "buffer" : 0,
            "byteLength" : 2880,
            "byteOffset" : 28976
        },
        {
            "buffer" : 0,
            "byteLength" : 1920,
            "byteOffset" : 31856
        },
        {
            "buffer" : 0,
            "byteLength" : 2292,
            "byteOffset" : 33776
        },
        {
            "buffer" : 0,
            "byteLength" : 768,
            "byteOffset" : 36068
        },
        {
            "buffer" : 0,
            "byteLength" : 768,
            "byteOffset" : 36836
        },
        {
            "buffer" : 0,
            "byteLength" : 512,
            "byteOffset" : 37604
        },
        {
            "buffer" : 0,
            "byteLength" : 576,
            "byteOffset" : 38116
        }
    ],
    "buffers" : [
        {
            "byteLength" : 38692,
            "uri" : "magician.bin"
        }
    ]
}
