{
    "asset" : {
        "generator" : "Khronos glTF Blender I/O v1.8.19",
        "version" : "2.0"
    },
    "scene" : 0,
    "scenes" : [
        {
            "name" : "Scene",
            "nodes" : [
                0
            ]
        }
    ],
    "nodes" : [
        {
            "mesh" : 0,
            "name" : "s\u00e4ule 2 low poly"
        }
    ],
    "materials" : [
        {
            "doubleSided" : true,
            "name" : "RuinStone",
            "pbrMetallicRoughness" : {
                "baseColorFactor" : [
                    0.0236504003405571,
                    0.0236504003405571,
                    0.0236504003405571,
                    1
                ],
                "metallicFactor" : 0,
                "roughnessFactor" : 0.9173228740692139
            }
        }
    ],
    "meshes" : [
        {
            "name" : "Cylinder.002",
            "primitives" : [
                {
                    "attributes" : {
                        "POSITION" : 0,
                        "NORMAL" : 1,
                        "TEXCOORD_0" : 2
                    },
                    "indices" : 3,
                    "material" : 0
                }
            ]
        }
    ],
    "accessors" : [
        {
            "bufferView" : 0,
            "componentType" : 5126,
            "count" : 215,
            "max" : [
                0.40149596333503723,
                1.34762704372406,
                0.39658617973327637
            ],
            "min" : [
                -0.39700227975845337,
                5.960464477539063e-08,
                -0.4063539505004883
            ],
            "type" : "VEC3"
        },
        {
            "bufferView" : 1,
            "componentType" : 5126,
            "count" : 215,
            "type" : "VEC3"
        },
        {
            "bufferView" : 2,
            "componentType" : 5126,
            "count" : 215,
            "type" : "VEC2"
        },
        {
            "bufferView" : 3,
            "componentType" : 5123,
            "count" : 270,
            "type" : "SCALAR"
        }
    ],
    "bufferViews" : [
        {
            "buffer" : 0,
            "byteLength" : 2580,
            "byteOffset" : 0
        },
        {
            "buffer" : 0,
            "byteLength" : 2580,
            "byteOffset" : 2580
        },
        {
            "buffer" : 0,
            "byteLength" : 1720,
            "byteOffset" : 5160
        },
        {
            "buffer" : 0,
            "byteLength" : 540,
            "byteOffset" : 6880
        }
    ],
    "buffers" : [
        {
            "byteLength" : 7420,
            "uri" : "Pillar2.bin"
        }
    ]
}
