{
    "asset" : {
        "generator" : "Khronos glTF Blender I/O v1.7.33",
        "version" : "2.0"
    },
    "scene" : 0,
    "scenes" : [
        {
            "name" : "Scene",
            "nodes" : [
                0
            ]
        }
    ],
    "nodes" : [
        {
            "mesh" : 0,
            "name" : "stein 2"
        }
    ],
    "materials" : [
        {
            "doubleSided" : true,
            "name" : "Material.002",
            "pbrMetallicRoughness" : {
                "baseColorFactor" : [
                    0.10247354209423065,
                    0.10247354209423065,
                    0.10247354209423065,
                    1
                ],
                "metallicFactor" : 0,
                "roughnessFactor" : 0.7559055089950562
            }
        }
    ],
    "meshes" : [
        {
            "name" : "Cube.003",
            "primitives" : [
                {
                    "attributes" : {
                        "POSITION" : 0,
                        "NORMAL" : 1,
                        "TEXCOORD_0" : 2
                    },
                    "indices" : 3,
                    "material" : 0
                }
            ]
        }
    ],
    "accessors" : [
        {
            "bufferView" : 0,
            "componentType" : 5126,
            "count" : 1073,
            "max" : [
                1.109909176826477,
                3.0550689697265625,
                0.7549455761909485
            ],
            "min" : [
                -0.783281147480011,
                0.0009969186503440142,
                -0.9670453667640686
            ],
            "type" : "VEC3"
        },
        {
            "bufferView" : 1,
            "componentType" : 5126,
            "count" : 1073,
            "type" : "VEC3"
        },
        {
            "bufferView" : 2,
            "componentType" : 5126,
            "count" : 1073,
            "type" : "VEC2"
        },
        {
            "bufferView" : 3,
            "componentType" : 5123,
            "count" : 3768,
            "type" : "SCALAR"
        }
    ],
    "bufferViews" : [
        {
            "buffer" : 0,
            "byteLength" : 12876,
            "byteOffset" : 0
        },
        {
            "buffer" : 0,
            "byteLength" : 12876,
            "byteOffset" : 12876
        },
        {
            "buffer" : 0,
            "byteLength" : 8584,
            "byteOffset" : 25752
        },
        {
            "buffer" : 0,
            "byteLength" : 7536,
            "byteOffset" : 34336
        }
    ],
    "buffers" : [
        {
            "byteLength" : 41872,
            "uri" : "Rock2.bin"
        }
    ]
}
