{
    "asset" : {
        "generator" : "Khronos glTF Blender I/O v1.7.33",
        "version" : "2.0"
    },
    "scene" : 0,
    "scenes" : [
        {
            "name" : "Scene",
            "nodes" : [
                0
            ]
        }
    ],
    "nodes" : [
        {
            "mesh" : 0,
            "name" : "stein 3"
        }
    ],
    "materials" : [
        {
            "doubleSided" : true,
            "name" : "Material.002",
            "pbrMetallicRoughness" : {
                "baseColorFactor" : [
                    0.10247354209423065,
                    0.10247354209423065,
                    0.10247354209423065,
                    1
                ],
                "metallicFactor" : 0,
                "roughnessFactor" : 0.7559055089950562
            }
        }
    ],
    "meshes" : [
        {
            "name" : "Cube.005",
            "primitives" : [
                {
                    "attributes" : {
                        "POSITION" : 0,
                        "NORMAL" : 1,
                        "TEXCOORD_0" : 2
                    },
                    "indices" : 3,
                    "material" : 0
                }
            ]
        }
    ],
    "accessors" : [
        {
            "bufferView" : 0,
            "componentType" : 5126,
            "count" : 458,
            "max" : [
                0.6022077202796936,
                1.3641096353530884,
                0.6623767018318176
            ],
            "min" : [
                -0.8762427568435669,
                -0.002093787072226405,
                -0.6086210608482361
            ],
            "type" : "VEC3"
        },
        {
            "bufferView" : 1,
            "componentType" : 5126,
            "count" : 458,
            "type" : "VEC3"
        },
        {
            "bufferView" : 2,
            "componentType" : 5126,
            "count" : 458,
            "type" : "VEC2"
        },
        {
            "bufferView" : 3,
            "componentType" : 5123,
            "count" : 1500,
            "type" : "SCALAR"
        }
    ],
    "bufferViews" : [
        {
            "buffer" : 0,
            "byteLength" : 5496,
            "byteOffset" : 0
        },
        {
            "buffer" : 0,
            "byteLength" : 5496,
            "byteOffset" : 5496
        },
        {
            "buffer" : 0,
            "byteLength" : 3664,
            "byteOffset" : 10992
        },
        {
            "buffer" : 0,
            "byteLength" : 3000,
            "byteOffset" : 14656
        }
    ],
    "buffers" : [
        {
            "byteLength" : 17656,
            "uri" : "Rock3.bin"
        }
    ]
}
