{
    "asset" : {
        "generator" : "Khronos glTF Blender I/O v1.8.19",
        "version" : "2.0"
    },
    "scene" : 0,
    "scenes" : [
        {
            "name" : "Scene",
            "nodes" : [
                0,
                1
            ]
        }
    ],
    "nodes" : [
        {
            "mesh" : 0,
            "name" : "Cylinder",
            "scale" : [
                0.9343937039375305,
                0.6166223287582397,
                0.9343937039375305
            ],
            "translation" : [
                0,
                0.6165534257888794,
                0
            ]
        },
        {
            "mesh" : 1,
            "name" : "Cone",
            "scale" : [
                0.05112582817673683,
                0.08922207355499268,
                0.05112582817673683
            ],
            "translation" : [
                0,
                1.2967784404754639,
                0
            ]
        }
    ],
    "materials" : [
        {
            "doubleSided" : true,
            "name" : "SpearWood",
            "pbrMetallicRoughness" : {
                "baseColorFactor" : [
                    0.12823867797851562,
                    0.09163632988929749,
                    0.01843169331550598,
                    1
                ],
                "metallicFactor" : 0,
                "roughnessFactor" : 0.751968502998352
            }
        },
        {
            "doubleSided" : true,
            "name" : "SpearIron",
            "pbrMetallicRoughness" : {
                "baseColorFactor" : [
                    0.13758328557014465,
                    0.13758328557014465,
                    0.13758328557014465,
                    1
                ],
                "roughnessFactor" : 0.32677164673805237
            }
        }
    ],
    "meshes" : [
        {
            "name" : "Cylinder",
            "primitives" : [
                {
                    "attributes" : {
                        "POSITION" : 0,
                        "NORMAL" : 1,
                        "TEXCOORD_0" : 2
                    },
                    "indices" : 3,
                    "material" : 0
                }
            ]
        },
        {
            "name" : "Cone",
            "primitives" : [
                {
                    "attributes" : {
                        "POSITION" : 4,
                        "NORMAL" : 5,
                        "TEXCOORD_0" : 6
                    },
                    "indices" : 7,
                    "material" : 1
                }
            ]
        }
    ],
    "accessors" : [
        {
            "bufferView" : 0,
            "componentType" : 5126,
            "count" : 34,
            "max" : [
                0.014999999664723873,
                1,
                0.014999999664723873
            ],
            "min" : [
                -0.014999999664723873,
                -1,
                -0.014999999664723873
            ],
            "type" : "VEC3"
        },
        {
            "bufferView" : 1,
            "componentType" : 5126,
            "count" : 34,
            "type" : "VEC3"
        },
        {
            "bufferView" : 2,
            "componentType" : 5126,
            "count" : 34,
            "type" : "VEC2"
        },
        {
            "bufferView" : 3,
            "componentType" : 5123,
            "count" : 84,
            "type" : "SCALAR"
        },
        {
            "bufferView" : 4,
            "componentType" : 5126,
            "count" : 96,
            "max" : [
                0.6926606297492981,
                1,
                0.6926605701446533
            ],
            "min" : [
                -0.6926605701446533,
                -1,
                -0.6926605701446533
            ],
            "type" : "VEC3"
        },
        {
            "bufferView" : 5,
            "componentType" : 5126,
            "count" : 96,
            "type" : "VEC3"
        },
        {
            "bufferView" : 6,
            "componentType" : 5126,
            "count" : 96,
            "type" : "VEC2"
        },
        {
            "bufferView" : 7,
            "componentType" : 5123,
            "count" : 138,
            "type" : "SCALAR"
        }
    ],
    "bufferViews" : [
        {
            "buffer" : 0,
            "byteLength" : 408,
            "byteOffset" : 0
        },
        {
            "buffer" : 0,
            "byteLength" : 408,
            "byteOffset" : 408
        },
        {
            "buffer" : 0,
            "byteLength" : 272,
            "byteOffset" : 816
        },
        {
            "buffer" : 0,
            "byteLength" : 168,
            "byteOffset" : 1088
        },
        {
            "buffer" : 0,
            "byteLength" : 1152,
            "byteOffset" : 1256
        },
        {
            "buffer" : 0,
            "byteLength" : 1152,
            "byteOffset" : 2408
        },
        {
            "buffer" : 0,
            "byteLength" : 768,
            "byteOffset" : 3560
        },
        {
            "buffer" : 0,
            "byteLength" : 276,
            "byteOffset" : 4328
        }
    ],
    "buffers" : [
        {
            "byteLength" : 4604,
            "uri" : "Spear.bin"
        }
    ]
}
