{
    "asset" : {
        "generator" : "Khronos glTF Blender I/O v1.8.19",
        "version" : "2.0"
    },
    "scene" : 0,
    "scenes" : [
        {
            "name" : "Scene",
            "nodes" : [
                0,
                1,
                2
            ]
        }
    ],
    "nodes" : [
        {
            "mesh" : 0,
            "name" : "SwordHandle",
            "scale" : [
                1.242441177368164,
                0.5326231122016907,
                1.242441177368164
            ],
            "translation" : [
                0,
                0.5148001909255981,
                0
            ]
        },
        {
            "mesh" : 1,
            "name" : "Cube.001",
            "scale" : [
                0.03893331065773964,
                0.030262937769293785,
                0.0071969348937273026
            ],
            "translation" : [
                0,
                0.2338273674249649,
                0
            ]
        },
        {
            "mesh" : 2,
            "name" : "Cube",
            "scale" : [
                0.6752915382385254,
                0.8811904191970825,
                0.8811904191970825
            ],
            "translation" : [
                0,
                0.199680894613266,
                0
            ]
        }
    ],
    "materials" : [
        {
            "doubleSided" : true,
            "name" : "SpearWood",
            "pbrMetallicRoughness" : {
                "baseColorFactor" : [
                    0.12823867797851562,
                    0.09163632988929749,
                    0.01843169331550598,
                    1
                ],
                "metallicFactor" : 0,
                "roughnessFactor" : 0.751968502998352
            }
        },
        {
            "doubleSided" : true,
            "name" : "SpearIron",
            "pbrMetallicRoughness" : {
                "baseColorFactor" : [
                    0.13758328557014465,
                    0.13758328557014465,
                    0.13758328557014465,
                    1
                ],
                "roughnessFactor" : 0.32677164673805237
            }
        }
    ],
    "meshes" : [
        {
            "name" : "Cylinder.003",
            "primitives" : [
                {
                    "attributes" : {
                        "POSITION" : 0,
                        "NORMAL" : 1,
                        "TEXCOORD_0" : 2
                    },
                    "indices" : 3,
                    "material" : 0
                }
            ]
        },
        {
            "name" : "Cube.001",
            "primitives" : [
                {
                    "attributes" : {
                        "POSITION" : 4,
                        "NORMAL" : 5,
                        "TEXCOORD_0" : 6
                    },
                    "indices" : 7,
                    "material" : 1
                }
            ]
        },
        {
            "name" : "Cube",
            "primitives" : [
                {
                    "attributes" : {
                        "POSITION" : 8,
                        "NORMAL" : 9,
                        "TEXCOORD_0" : 10
                    },
                    "indices" : 11,
                    "material" : 0
                }
            ]
        }
    ],
    "accessors" : [
        {
            "bufferView" : 0,
            "componentType" : 5126,
            "count" : 42,
            "max" : [
                0.014999999664723873,
                -0.6196544766426086,
                0.01500000525265932
            ],
            "min" : [
                -0.014999999664723873,
                -1.0085214376449585,
                -0.015000001527369022
            ],
            "type" : "VEC3"
        },
        {
            "bufferView" : 1,
            "componentType" : 5126,
            "count" : 42,
            "type" : "VEC3"
        },
        {
            "bufferView" : 2,
            "componentType" : 5126,
            "count" : 42,
            "type" : "VEC2"
        },
        {
            "bufferView" : 3,
            "componentType" : 5123,
            "count" : 132,
            "type" : "SCALAR"
        },
        {
            "bufferView" : 4,
            "componentType" : 5126,
            "count" : 446,
            "max" : [
                1,
                34.22881317138672,
                0.9622469544410706
            ],
            "min" : [
                -1,
                -1,
                -0.9622470140457153
            ],
            "type" : "VEC3"
        },
        {
            "bufferView" : 5,
            "componentType" : 5126,
            "count" : 446,
            "type" : "VEC3"
        },
        {
            "bufferView" : 6,
            "componentType" : 5126,
            "count" : 446,
            "type" : "VEC2"
        },
        {
            "bufferView" : 7,
            "componentType" : 5123,
            "count" : 708,
            "type" : "SCALAR"
        },
        {
            "bufferView" : 8,
            "componentType" : 5126,
            "count" : 102,
            "max" : [
                0.15159346163272858,
                0.0323609784245491,
                0.03236098960042
            ],
            "min" : [
                -0.15159346163272858,
                -0.03236098960042,
                -0.03236098960042
            ],
            "type" : "VEC3"
        },
        {
            "bufferView" : 9,
            "componentType" : 5126,
            "count" : 102,
            "type" : "VEC3"
        },
        {
            "bufferView" : 10,
            "componentType" : 5126,
            "count" : 102,
            "type" : "VEC2"
        },
        {
            "bufferView" : 11,
            "componentType" : 5123,
            "count" : 372,
            "type" : "SCALAR"
        }
    ],
    "bufferViews" : [
        {
            "buffer" : 0,
            "byteLength" : 504,
            "byteOffset" : 0
        },
        {
            "buffer" : 0,
            "byteLength" : 504,
            "byteOffset" : 504
        },
        {
            "buffer" : 0,
            "byteLength" : 336,
            "byteOffset" : 1008
        },
        {
            "buffer" : 0,
            "byteLength" : 264,
            "byteOffset" : 1344
        },
        {
            "buffer" : 0,
            "byteLength" : 5352,
            "byteOffset" : 1608
        },
        {
            "buffer" : 0,
            "byteLength" : 5352,
            "byteOffset" : 6960
        },
        {
            "buffer" : 0,
            "byteLength" : 3568,
            "byteOffset" : 12312
        },
        {
            "buffer" : 0,
            "byteLength" : 1416,
            "byteOffset" : 15880
        },
        {
            "buffer" : 0,
            "byteLength" : 1224,
            "byteOffset" : 17296
        },
        {
            "buffer" : 0,
            "byteLength" : 1224,
            "byteOffset" : 18520
        },
        {
            "buffer" : 0,
            "byteLength" : 816,
            "byteOffset" : 19744
        },
        {
            "buffer" : 0,
            "byteLength" : 744,
            "byteOffset" : 20560
        }
    ],
    "buffers" : [
        {
            "byteLength" : 21304,
            "uri" : "Sword.bin"
        }
    ]
}
