{
    "asset" : {
        "generator" : "Khronos glTF Blender I/O v1.8.19",
        "version" : "2.0"
    },
    "scene" : 0,
    "scenes" : [
        {
            "name" : "Scene",
            "nodes" : [
                0,
                1
            ]
        }
    ],
    "nodes" : [
        {
            "mesh" : 0,
            "name" : "tree 3",
            "translation" : [
                -0.04687146469950676,
                0.6522274017333984,
                -0.0071489810943603516
            ]
        },
        {
            "mesh" : 1,
            "name" : "crown 3",
            "translation" : [
                0.08815650641918182,
                4.0676984786987305,
                -0.06610107421875
            ]
        }
    ],
    "materials" : [
        {
            "doubleSided" : true,
            "name" : "TreeWood",
            "pbrMetallicRoughness" : {
                "baseColorFactor" : [
                    0.28100940585136414,
                    0.1612747460603714,
                    0.031912922859191895,
                    1
                ],
                "metallicFactor" : 0
            }
        },
        {
            "doubleSided" : true,
            "name" : "TreeGreen",
            "pbrMetallicRoughness" : {
                "baseColorFactor" : [
                    0.018131067976355553,
                    0.0908377543091774,
                    0.005365427583456039,
                    1
                ],
                "metallicFactor" : 0,
                "roughnessFactor" : 0.8031495809555054
            }
        }
    ],
    "meshes" : [
        {
            "name" : "Cylinder.002",
            "primitives" : [
                {
                    "attributes" : {
                        "POSITION" : 0,
                        "NORMAL" : 1,
                        "TEXCOORD_0" : 2
                    },
                    "indices" : 3,
                    "material" : 0
                }
            ]
        },
        {
            "name" : "Cube.008",
            "primitives" : [
                {
                    "attributes" : {
                        "POSITION" : 4,
                        "NORMAL" : 5,
                        "TEXCOORD_0" : 6
                    },
                    "indices" : 7,
                    "material" : 1
                }
            ]
        }
    ],
    "accessors" : [
        {
            "bufferView" : 0,
            "componentType" : 5126,
            "count" : 53,
            "max" : [
                0.3352753818035126,
                0.8152421712875366,
                0.3140147626399994
            ],
            "min" : [
                -0.29275432229042053,
                -0.6555428504943848,
                -0.3140147626399994
            ],
            "type" : "VEC3"
        },
        {
            "bufferView" : 1,
            "componentType" : 5126,
            "count" : 53,
            "type" : "VEC3"
        },
        {
            "bufferView" : 2,
            "componentType" : 5126,
            "count" : 53,
            "type" : "VEC2"
        },
        {
            "bufferView" : 3,
            "componentType" : 5123,
            "count" : 228,
            "type" : "SCALAR"
        },
        {
            "bufferView" : 4,
            "componentType" : 5126,
            "count" : 416,
            "max" : [
                0.7230233550071716,
                2.606057643890381,
                0.7706359624862671
            ],
            "min" : [
                -0.7991844415664673,
                -2.7235522270202637,
                -0.7200809717178345
            ],
            "type" : "VEC3"
        },
        {
            "bufferView" : 5,
            "componentType" : 5126,
            "count" : 416,
            "type" : "VEC3"
        },
        {
            "bufferView" : 6,
            "componentType" : 5126,
            "count" : 416,
            "type" : "VEC2"
        },
        {
            "bufferView" : 7,
            "componentType" : 5123,
            "count" : 2112,
            "type" : "SCALAR"
        }
    ],
    "bufferViews" : [
        {
            "buffer" : 0,
            "byteLength" : 636,
            "byteOffset" : 0
        },
        {
            "buffer" : 0,
            "byteLength" : 636,
            "byteOffset" : 636
        },
        {
            "buffer" : 0,
            "byteLength" : 424,
            "byteOffset" : 1272
        },
        {
            "buffer" : 0,
            "byteLength" : 456,
            "byteOffset" : 1696
        },
        {
            "buffer" : 0,
            "byteLength" : 4992,
            "byteOffset" : 2152
        },
        {
            "buffer" : 0,
            "byteLength" : 4992,
            "byteOffset" : 7144
        },
        {
            "buffer" : 0,
            "byteLength" : 3328,
            "byteOffset" : 12136
        },
        {
            "buffer" : 0,
            "byteLength" : 4224,
            "byteOffset" : 15464
        }
    ],
    "buffers" : [
        {
            "byteLength" : 19688,
            "uri" : "Tree3.bin"
        }
    ]
}
