{
    "asset" : {
        "generator" : "Khronos glTF Blender I/O v1.8.19",
        "version" : "2.0"
    },
    "scene" : 0,
    "scenes" : [
        {
            "name" : "Scene",
            "nodes" : [
                0,
                1
            ]
        }
    ],
    "nodes" : [
        {
            "mesh" : 0,
            "name" : "tree 2",
            "translation" : [
                0.02182784304022789,
                1.41416597366333,
                0.023324500769376755
            ]
        },
        {
            "mesh" : 1,
            "name" : "crown 2",
            "translation" : [
                0.0638049840927124,
                4.125609874725342,
                0.021377945318818092
            ]
        }
    ],
    "materials" : [
        {
            "doubleSided" : true,
            "name" : "TreeWood",
            "pbrMetallicRoughness" : {
                "baseColorFactor" : [
                    0.28100940585136414,
                    0.1612747460603714,
                    0.031912922859191895,
                    1
                ],
                "metallicFactor" : 0
            }
        },
        {
            "doubleSided" : true,
            "name" : "TreeGreen.001",
            "pbrMetallicRoughness" : {
                "baseColorFactor" : [
                    0.017021873965859413,
                    0.046961478888988495,
                    0.003551229601725936,
                    1
                ],
                "metallicFactor" : 0,
                "roughnessFactor" : 0.8031495809555054
            }
        }
    ],
    "meshes" : [
        {
            "name" : "Cylinder",
            "primitives" : [
                {
                    "attributes" : {
                        "POSITION" : 0,
                        "NORMAL" : 1,
                        "TEXCOORD_0" : 2
                    },
                    "indices" : 3,
                    "material" : 0
                }
            ]
        },
        {
            "name" : "Cube.006",
            "primitives" : [
                {
                    "attributes" : {
                        "POSITION" : 4,
                        "NORMAL" : 5,
                        "TEXCOORD_0" : 6
                    },
                    "indices" : 7,
                    "material" : 1
                }
            ]
        }
    ],
    "accessors" : [
        {
            "bufferView" : 0,
            "componentType" : 5126,
            "count" : 69,
            "max" : [
                0.28049224615097046,
                2.5857410430908203,
                0.23420734703540802
            ],
            "min" : [
                -0.2345714271068573,
                -1.41416597366333,
                -0.28085628151893616
            ],
            "type" : "VEC3"
        },
        {
            "bufferView" : 1,
            "componentType" : 5126,
            "count" : 69,
            "type" : "VEC3"
        },
        {
            "bufferView" : 2,
            "componentType" : 5126,
            "count" : 69,
            "type" : "VEC2"
        },
        {
            "bufferView" : 3,
            "componentType" : 5123,
            "count" : 276,
            "type" : "SCALAR"
        },
        {
            "bufferView" : 4,
            "componentType" : 5126,
            "count" : 274,
            "max" : [
                1.5273383855819702,
                0.9690244197845459,
                1.2673895359039307
            ],
            "min" : [
                -1.3870322704315186,
                -1.4554083347320557,
                -1.1894859075546265
            ],
            "type" : "VEC3"
        },
        {
            "bufferView" : 5,
            "componentType" : 5126,
            "count" : 274,
            "type" : "VEC3"
        },
        {
            "bufferView" : 6,
            "componentType" : 5126,
            "count" : 274,
            "type" : "VEC2"
        },
        {
            "bufferView" : 7,
            "componentType" : 5123,
            "count" : 1344,
            "type" : "SCALAR"
        }
    ],
    "bufferViews" : [
        {
            "buffer" : 0,
            "byteLength" : 828,
            "byteOffset" : 0
        },
        {
            "buffer" : 0,
            "byteLength" : 828,
            "byteOffset" : 828
        },
        {
            "buffer" : 0,
            "byteLength" : 552,
            "byteOffset" : 1656
        },
        {
            "buffer" : 0,
            "byteLength" : 552,
            "byteOffset" : 2208
        },
        {
            "buffer" : 0,
            "byteLength" : 3288,
            "byteOffset" : 2760
        },
        {
            "buffer" : 0,
            "byteLength" : 3288,
            "byteOffset" : 6048
        },
        {
            "buffer" : 0,
            "byteLength" : 2192,
            "byteOffset" : 9336
        },
        {
            "buffer" : 0,
            "byteLength" : 2688,
            "byteOffset" : 11528
        }
    ],
    "buffers" : [
        {
            "byteLength" : 14216,
            "uri" : "Tree2.bin"
        }
    ]
}
